<svg width="99" height="37" viewBox="0 0 99 37" fill="none" xmlns="http://www.w3.org/2000/svg">
<g clip-path="url(#clip0_4_2355)">
<path d="M14.5766 7.62891C11.5352 13.0406 6.58245 17.1214 0.688965 19.0716V35.9849H14.5714L14.5766 7.62891Z" fill="black"/>
<path d="M0.688965 7.51376V11.1331C5.16889 8.90388 8.481 4.86445 9.78915 0.0345459L6.4986 0.0371046C5.46322 3.11457 3.41524 5.75019 0.688965 7.51376Z" fill="#00A0DF"/>
<path d="M0.688965 4.91024C2.26638 3.6085 3.49375 1.93345 4.2597 0.0371094H0.688965V4.91024Z" fill="black"/>
<path d="M11.9577 0.0345459C10.5236 6.0356 6.34912 11.012 0.688965 13.468V16.8327C8.10629 14.1272 13.5901 7.76885 15.1766 0.0345459H11.9577Z" fill="#00A0DF"/>
<path d="M25.7058 8.64093L20.5602 1.8014V8.64093H19.3461V0.156128H20.7534L25.519 6.50054V0.156128H26.7332V8.64093H25.7058Z" fill="black"/>
<path d="M28.8262 8.64093V0.156128H30.0531V8.64093H28.8262Z" fill="black"/>
<path d="M37.9776 0.442697V1.61716C36.8799 1.27813 36.1493 1.10541 35.2742 1.10541C34.1663 1.10541 33.043 1.38176 33.043 2.3221C33.043 2.94899 33.5778 3.30082 34.2827 3.49656L36.4372 4.11066C37.4812 4.39852 38.3422 5.03821 38.3422 6.33037C38.3422 7.90912 37.0244 8.79701 34.7382 8.79701C33.6935 8.79565 32.6581 8.60089 31.6843 8.22257V6.98413C32.6758 7.30909 33.6162 7.67499 34.7382 7.67499C36.1621 7.67499 37.0743 7.16325 37.0743 6.37003C37.0743 5.67789 36.5408 5.32479 35.8116 5.13032L33.8132 4.58147C32.7296 4.29489 31.8007 3.68591 31.8007 2.32338C31.8007 0.660191 33.3821 1.68801e-05 35.2742 1.68801e-05C36.1935 -0.001829 37.1069 0.147727 37.9776 0.442697Z" fill="black"/>
<path d="M45.8765 0.442677V1.61714C44.7801 1.27811 44.0483 1.10539 43.1745 1.10539C42.064 1.10539 40.9407 1.38174 40.9407 2.32208C40.9407 2.94897 41.4767 3.3008 42.1817 3.49654L44.3361 4.11064C45.3814 4.3985 46.2411 5.03819 46.2411 6.33035C46.2411 7.9091 44.9234 8.79699 42.6384 8.79699C41.5933 8.79561 40.5575 8.60085 39.5833 8.22255V6.98411C40.576 7.30907 41.5151 7.67497 42.6384 7.67497C44.0611 7.67497 44.9771 7.16323 44.9771 6.37001C44.9771 5.67787 44.441 5.32477 43.7092 5.1303L41.716 4.58145C40.6336 4.29487 39.7061 3.68589 39.7061 2.32336C39.7061 0.660171 41.2861 6.90035e-06 43.1796 6.90035e-06C44.0967 -0.00117067 45.0078 0.148376 45.8765 0.442677Z" fill="black"/>
<path d="M54.3369 8.64093C54.1258 8.01404 53.8699 7.25793 53.5526 6.44809H48.9315C48.5925 7.3091 48.3187 8.08057 48.1486 8.64093H46.8334C48.1127 4.76443 49.941 1.0696 50.5026 0.156128H51.9509C52.3027 0.716493 54.1181 4.11195 55.6188 8.64093H54.3369ZM53.1215 5.35166C52.5215 3.84968 51.8293 2.30931 51.2434 1.26534C50.7073 2.27093 49.9896 3.84968 49.3755 5.35166H53.1215Z" fill="black"/>
<path d="M62.9535 8.64093L57.8104 1.8014V8.64093H56.5963V0.156128H58.0036L62.768 6.50054V0.156128H63.9834V8.64093H62.9535Z" fill="black"/>
<path d="M39.0471 31.8526C39.0471 34.5559 37.2445 36.2651 34.5936 36.2651C31.779 36.2651 30.0148 34.5149 30.0148 31.8526C30.0148 29.1902 31.7739 27.472 34.5821 27.472C37.4415 27.472 39.0471 29.2286 39.0471 31.8526ZM31.3044 31.8526C31.3044 33.8996 32.649 35.0894 34.5936 35.0894C36.4359 35.0894 37.7793 33.9008 37.7793 31.8526C37.7793 29.7109 36.4603 28.6145 34.5809 28.6145C32.6618 28.6145 31.3044 29.6725 31.3044 31.8526Z" fill="black"/>
<path d="M44.2747 27.623C45.8035 27.623 47.2901 28.1181 47.2901 29.7109C47.2901 30.7037 46.7694 31.3434 45.998 31.6684V31.6824C46.795 31.9383 47.5793 32.5562 47.5793 33.8241C47.5793 35.6255 45.9877 36.1078 43.9625 36.1078H40.6041V27.623H44.2747ZM41.831 31.2257H43.9983C45.2521 31.2257 46.0095 30.8342 46.0095 29.9195C46.0095 28.8358 44.9003 28.745 43.9983 28.745H41.831V31.2257ZM41.831 34.9858H43.8908C45.2227 34.9858 46.2935 34.79 46.2935 33.6795C46.2935 32.7008 45.3915 32.3093 43.942 32.3093H41.831V34.9858Z" fill="black"/>
<path d="M49.3206 36.1078V27.623H50.5436V36.1078H49.3206Z" fill="black"/>
<path d="M58.761 34.9858V36.1078H52.666V27.623H53.8917V34.9858H58.761Z" fill="black"/>
<path d="M60.0775 36.1078V27.623H61.3044V36.1078H60.0775Z" fill="black"/>
<path d="M67.0475 28.7514V36.1078H65.8193V28.7514H62.608V27.6294H70.2587V28.7514H67.0475Z" fill="black"/>
<path d="M78.5542 27.623C77.3413 29.9463 75.696 32.5064 75.1485 33.2369V36.1078H73.9203V33.2369C73.3586 32.4936 71.753 29.9732 70.5133 27.623H71.9488C72.7204 29.17 73.5838 30.6696 74.5344 32.1136C75.4803 30.6742 76.3304 29.1741 77.079 27.623H78.5542Z" fill="black"/>
<path d="M27.7707 27.623C28.175 29.0981 28.775 30.8995 29.4339 36.1078H28.1929C27.6581 32.1417 27.2014 30.1677 26.9788 29.2811C26.1702 31.2257 25.3476 33.2612 24.6171 35.2071H23.7548C22.4882 31.8526 21.6131 29.6597 21.4186 29.3463C21.196 30.2419 20.7252 32.2172 20.1904 36.1078H18.9366C19.6416 30.9519 20.2301 29.1378 20.6472 27.623H21.8856C22.5918 29.1889 23.362 31.03 24.1885 33.1703C25.2862 30.4555 25.9387 28.9663 26.54 27.623H27.7707Z" fill="black"/>
<path d="M28.5179 14.1409V20.4853L23.7523 14.1409H22.3424V22.627H23.5553V15.7862L28.6996 22.627H29.7295V14.1409H28.5179Z" fill="black"/>
<path d="M35.4022 15.2629V22.6257H34.1676V15.2629H30.9564V14.1409H38.6058V15.2629H35.4022Z" fill="black"/>
<path d="M41.1492 15.2629V17.704H45.5361V18.8145H41.1492V21.5012H45.9148V22.6232H39.9248V14.1409H45.9174V15.2629H41.1492Z" fill="black"/>
<path d="M53.7113 21.5037V22.6257H47.6163V14.1409H48.842V21.5037H53.7113Z" fill="black"/>
<path d="M61.1112 21.5037V22.6257H55.0137V14.1409H56.2431V21.5037H61.1112Z" fill="black"/>
<path d="M62.4149 22.6257V14.1409H63.6418V22.6257H62.4149Z" fill="black"/>
<path d="M19.3461 22.6257V14.1409H20.5743V22.6257H19.3461Z" fill="black"/>
<path d="M73.0171 14.5068V15.7018C71.8835 15.2834 71.153 15.1273 70.1474 15.1273C68.1759 15.1273 66.5025 16.1854 66.5025 18.4166C66.5025 20.754 68.4216 21.6291 70.2383 21.6291C70.7759 21.6408 71.3123 21.5748 71.8311 21.4334V18.4614H73.0606V22.2611C72.1341 22.6262 71.1443 22.8037 70.1487 22.7831C67.7972 22.7831 65.2129 21.5946 65.2129 18.4614C65.2129 15.4203 67.5375 13.9836 70.1615 13.9836C71.1355 14.0016 72.1 14.1784 73.0171 14.5068Z" fill="black"/>
<path d="M76.2436 15.2629V17.704H80.6319V18.8145H76.2436V21.5012H81.0093V22.6232H75.0167V14.1409H81.0093V15.2629H76.2436Z" fill="black"/>
<path d="M88.8993 22.6257L83.7549 15.7862V22.6257H82.5382V14.1409H83.9455L88.7112 20.4853V14.1409H89.9253V22.6257H88.8993Z" fill="black"/>
<path d="M95.3959 15.2629V22.6257H94.1702V15.2629H90.959V14.1409H98.6084V15.2629H95.3959Z" fill="black"/>
</g>
<defs>
<clipPath id="clip0_4_2355">
<rect width="98" height="37" fill="white" transform="translate(0.688965)"/>
</clipPath>
</defs>
</svg>
