<?xml version="1.0" encoding="UTF-8"?>
<svg version="1.1" xmlns="http://www.w3.org/2000/svg" xmlns:xlink="http://www.w3.org/1999/xlink">
<defs></defs>
<symbol id="nissan" fill="none" viewBox="0 0 99 37"><g clip-path="url(#a)"><path fill="#000" d="M14.577 7.629A24.906 24.906 0 0 1 .689 19.072v16.913h13.882l.006-28.356Z"/><path fill="#00A0DF" d="M.689 7.514v3.62a17.51 17.51 0 0 0 9.1-11.1L6.5.038a14.357 14.357 0 0 1-5.81 7.477Z"/><path fill="#000" d="M.689 4.91A12.282 12.282 0 0 0 4.259.037H.69V4.91Z"/><path fill="#00A0DF" d="M11.958.035A19.613 19.613 0 0 1 .689 13.468v3.365A22.746 22.746 0 0 0 15.177.035h-3.22Z"/><path fill="#000" d="M25.706 8.64 20.56 1.802v6.84h-1.214V.156h1.407l4.766 6.345V.156h1.214v8.485h-1.027ZM28.826 8.64V.157h1.227v8.485h-1.227ZM37.978.443v1.174c-1.098-.339-1.829-.512-2.704-.512-1.108 0-2.231.277-2.231 1.217 0 .627.535.979 1.24 1.175l2.154.614c1.044.288 1.905.927 1.905 2.22 0 1.578-1.318 2.466-3.604 2.466a8.464 8.464 0 0 1-3.054-.574V6.984c.992.325 1.932.691 3.054.691 1.424 0 2.336-.512 2.336-1.305 0-.692-.533-1.045-1.262-1.24l-1.999-.549c-1.083-.286-2.012-.895-2.012-2.258C31.8.66 33.382 0 35.274 0a8.373 8.373 0 0 1 2.704.443ZM45.877.443v1.174c-1.097-.339-1.829-.512-2.703-.512-1.11 0-2.233.277-2.233 1.217 0 .627.536.979 1.24 1.175l2.155.614c1.045.288 1.905.927 1.905 2.22 0 1.578-1.318 2.466-3.603 2.466a8.47 8.47 0 0 1-3.055-.574V6.984c.993.325 1.932.691 3.055.691 1.423 0 2.34-.512 2.34-1.305 0-.692-.537-1.045-1.269-1.24l-1.993-.549c-1.082-.286-2.01-.895-2.01-2.258C39.706.66 41.286 0 43.18 0a8.371 8.371 0 0 1 2.697.443ZM54.337 8.64a46.896 46.896 0 0 0-.784-2.192h-4.621a30.808 30.808 0 0 0-.783 2.193h-1.316c1.28-3.877 3.108-7.571 3.67-8.485h1.448c.352.56 2.167 3.956 3.668 8.485h-1.282ZM53.12 5.353c-.6-1.502-1.292-3.043-1.878-4.087-.536 1.006-1.253 2.585-1.867 4.087h3.745ZM62.953 8.64 57.81 1.802v6.84h-1.214V.156h1.408l4.764 6.345V.156h1.215v8.485h-1.03ZM39.047 31.853c0 2.703-1.802 4.412-4.453 4.412-2.815 0-4.58-1.75-4.58-4.412 0-2.663 1.76-4.381 4.568-4.381 2.86 0 4.465 1.757 4.465 4.38Zm-7.743 0c0 2.047 1.345 3.236 3.29 3.236 1.842 0 3.185-1.188 3.185-3.236 0-2.142-1.319-3.239-3.198-3.239-1.92 0-3.277 1.058-3.277 3.239ZM44.275 27.623c1.529 0 3.015.495 3.015 2.088 0 .993-.52 1.632-1.292 1.957v.014c.797.256 1.581.874 1.581 2.142 0 1.802-1.591 2.284-3.617 2.284h-3.358v-8.485h3.67Zm-2.444 3.603h2.167c1.254 0 2.012-.392 2.012-1.306 0-1.084-1.11-1.175-2.012-1.175h-2.167v2.48Zm0 3.76h2.06c1.332 0 2.403-.196 2.403-1.306 0-.98-.902-1.37-2.352-1.37h-2.111v2.676ZM49.32 36.108v-8.485h1.224v8.485H49.32ZM58.761 34.986v1.122h-6.095v-8.485h1.226v7.363h4.869ZM60.078 36.108v-8.485h1.226v8.485h-1.227ZM67.047 28.751v7.357H65.82V28.75h-3.211V27.63h7.65v1.122h-3.21ZM78.554 27.623c-1.213 2.323-2.858 4.883-3.406 5.614v2.87H73.92v-2.87c-.561-.743-2.167-3.264-3.407-5.614h1.436a43.378 43.378 0 0 0 2.585 4.49 39.21 39.21 0 0 0 2.545-4.49h1.475ZM27.77 27.623c.405 1.475 1.005 3.276 1.664 8.485h-1.241c-.535-3.966-.992-5.94-1.214-6.827a185.753 185.753 0 0 0-2.362 5.926h-.862c-1.267-3.354-2.142-5.547-2.336-5.86-.223.895-.694 2.87-1.229 6.76h-1.253c.705-5.155 1.293-6.97 1.71-8.484h1.239a109.646 109.646 0 0 1 2.303 5.547 149.594 149.594 0 0 1 2.351-5.547h1.23ZM28.518 14.14v6.345l-4.766-6.344h-1.41v8.486h1.213v-6.84l5.145 6.84h1.03v-8.486h-1.212ZM35.402 15.263v7.363h-1.234v-7.363h-3.212V14.14h7.65v1.122h-3.204ZM41.15 15.263v2.441h4.386v1.11H41.15v2.687h4.766v1.122h-5.99v-8.482h5.992v1.122H41.15ZM53.711 21.504v1.122h-6.095V14.14h1.226v7.363h4.87ZM61.111 21.504v1.122h-6.097V14.14h1.23v7.363h4.867ZM62.415 22.626V14.14h1.227v8.485h-1.227ZM19.346 22.626V14.14h1.228v8.485h-1.228ZM73.017 14.507v1.195c-1.133-.419-1.864-.575-2.87-.575-1.971 0-3.645 1.058-3.645 3.29 0 2.337 1.92 3.212 3.736 3.212a5.594 5.594 0 0 0 1.593-.196v-2.972h1.23v3.8a7.518 7.518 0 0 1-2.912.522c-2.352 0-4.936-1.188-4.936-4.322 0-3.04 2.325-4.477 4.949-4.477a8.962 8.962 0 0 1 2.855.523ZM76.244 15.263v2.441h4.388v1.11h-4.388v2.687h4.765v1.122h-5.992v-8.482h5.992v1.122h-4.765ZM88.9 22.626l-5.145-6.84v6.84h-1.217V14.14h1.407l4.766 6.344v-6.344h1.214v8.485H88.9ZM95.396 15.263v7.363H94.17v-7.363H90.96V14.14h7.65v1.122h-3.213Z"/></g></symbol>
<symbol id="logo" fill="none" viewBox="0 0 1039 192"><path fill="#6ACCC9" d="M138.942 49.616c0 2.225 0 4.45-2.239 4.45s-4.478-4.45-4.478-8.9c-2.239-13.348-6.717-22.247-13.434-28.92-4.478-2.226-11.195-4.45-20.15-6.675H47.145v80.09c22.39 0 38.062-2.224 42.54-4.45 4.478-2.224 8.956-11.123 8.956-26.696 0-4.45 2.239-6.674 2.239-6.674s2.239 2.225 2.239 4.45V127.481c0 2.225 0 2.225-2.239 2.225-2.24 0-2.24 0-2.24-2.225 0 0 0-4.45-2.238-13.349 2.239-6.674-2.24-13.348-4.478-15.573-2.24-2.225-13.434-4.45-26.868-4.45H47.145V174.202c0 4.45 2.239 8.899 6.717 8.899h13.433c2.24 0 4.478 0 4.478 2.225s-2.239 2.225-4.478 2.225H4.605c-2.24 2.224-4.478 2.224-4.478 0 0-2.225 2.239-2.225 8.956-2.225 6.716 0 8.955-2.225 11.194-2.225 0-2.225 2.24-6.674 2.24-13.348V16.245c0-2.225-2.24-4.45-2.24-6.674-2.239 0-6.716-2.225-13.433-2.225-4.478 2.225-6.717 0-6.717 0 0-2.225 2.239-2.225 4.478-2.225H78.49c31.345 0 49.257 0 55.974-2.224 0 2.224 0 8.899 2.239 20.022 0 6.674 2.239 13.349 2.239 20.023v6.674ZM244.174 187.55c0 2.224 0 2.224-2.239 2.224H179.244c-2.239 0-4.478 0-4.478-2.224 0-2.225 2.239-2.225 6.717-2.225 6.717 0 11.195 0 13.434-2.225 2.239-2.225 2.239-6.674 2.239-15.573V25.144c0-8.899 0-13.348-2.239-15.573 0-2.225-6.717-2.225-15.673-2.225-4.478 0-4.478 0-4.478-2.225 0-2.224 0-2.224 2.239-2.224h62.691c2.239 0 4.478 0 4.478 2.224 0 2.225-4.478 2.225-11.195 2.225-4.478 0-6.717 0-8.956 2.225 0 2.225-2.239 4.45-2.239 11.124v142.383c0 11.123 0 15.573 2.239 15.573 2.239 2.224 6.717 2.224 17.912 4.449 0 2.225 2.239 2.225 2.239 4.45ZM461.351 134.157c0 2.224 0 2.224-2.239 2.224h-6.717c-8.956 0-13.434 0-13.434 4.45v31.146c-8.956 8.899-17.911 13.349-26.867 15.573-8.956 4.45-20.151 4.45-31.345 4.45-29.107 0-51.496-8.899-67.169-24.472-15.672-17.798-24.628-40.046-24.628-68.967 0-28.922 8.956-53.394 24.628-71.192C329.253 9.572 351.642.673 378.51.673c11.194 0 24.628 2.224 38.062 8.899 4.478 2.224 6.717 2.224 11.195 2.224 4.477 0 6.716-2.224 6.716-6.674 0-2.225 2.239-4.45 2.239-4.45 2.239 0 2.239 0 2.239 2.225v6.675c0 11.123-2.239 17.797-2.239 22.247V58.516c0 4.45-2.239 6.674-4.478 6.674s-2.239-2.225-2.239-4.45c0-17.797-6.716-31.146-15.672-40.045-8.956-8.899-20.151-15.573-35.823-15.573-17.912 0-33.585 8.899-44.779 24.472-11.195 15.573-15.673 40.045-15.673 66.742 0 26.697 4.478 48.944 15.673 64.517 11.194 15.574 26.867 24.473 44.779 24.473 13.433 0 24.628-4.45 29.106-11.124 2.239-4.45 4.478-11.124 4.478-22.248 0-8.898 0-13.348-2.239-15.573-2.239-2.224-6.717-2.224-17.912-2.224h-4.478v-2.225c0-2.225 2.239-2.225 6.717-2.225h62.691c2.239 2.225 4.478 2.225 4.478 4.45ZM656.138 187.55c0 2.225-2.239 2.225-4.478 2.225H575.536c-4.478 0-4.478 0-4.478-2.225 0-2.224 2.239-2.224 6.717-2.224 15.672 0 24.628-2.225 24.628-4.45v-2.225l-2.239-6.674-2.239-4.449c-2.239-4.45-4.478-17.798-11.194-35.596h-58.213c-11.195 28.921-15.673 44.495-15.673 48.944 0 2.225 0 4.45 2.239 4.45h13.434c4.478 0 6.717 0 6.717 2.224 0 2.225-2.239 2.225-6.717 2.225h-51.496c-2.239 0-4.478 0-4.478-2.225 0-2.224 2.239-2.224 8.956-2.224s8.956 0 11.195-2.225c2.239-2.225 4.478-4.45 6.717-8.899 22.389-66.742 42.54-117.911 55.973-157.956 0-2.225 2.239-4.45 2.239-6.674l2.239-4.45 4.478-4.45 2.239 2.225c2.239 6.675 6.717 22.248 15.673 44.495 6.717 17.798 22.389 60.068 47.018 129.035 2.239 4.449 2.239 6.674 4.478 6.674 2.238 0 6.716 2.225 13.433 2.225s8.956 0 8.956 2.224Zm-71.646-64.517c-2.239-8.899-6.717-22.247-13.434-40.045l-13.434-37.82c-6.717 20.022-15.672 44.494-26.867 77.865h53.735ZM830.775 180.876c0 6.675-6.716 11.124-17.911 11.124-13.434 0-24.629-6.674-33.584-17.798-4.478-4.449-6.717-8.899-6.717-13.348 0-4.45-2.239-15.573-4.478-35.596 0-11.124-4.478-20.023-11.195-24.472-6.717-4.45-15.673-6.674-31.345-6.674v84.54c0 4.449 2.239 6.674 8.956 6.674h13.433c2.239 0 4.478 0 4.478 2.224 0 2.225-2.239 2.225-4.478 2.225h-62.69c-4.478 0-6.717 0-6.717-2.225 0-2.224 2.239-2.224 6.717-2.224 8.956 0 13.433-2.225 13.433-2.225V25.145c0-6.674 0-11.124-2.239-13.348-2.238-2.225-6.716-2.225-13.433-2.225-4.478 0-6.717 0-6.717-2.225s2.239-2.225 4.478-2.225h69.407c15.673 0 29.107 4.45 40.301 11.124 11.195 6.674 15.673 17.798 15.673 28.921 0 13.349-4.478 22.248-15.673 31.147-11.194 8.899-24.628 13.348-42.54 13.348h-2.239 2.239c17.912 2.225 31.346 8.9 38.062 20.023 6.717 11.123 11.195 26.697 13.434 53.393 2.239 15.574 6.717 22.248 15.673 22.248 2.239 0 4.478 0 4.478-2.225s-2.239-4.449-2.239-4.449c0-4.45 2.239-6.675 6.717-6.675 4.477 2.225 6.716 4.45 6.716 8.899ZM774.802 47.392c0-24.472-11.195-37.82-33.585-37.82-6.716 0-8.955 0-11.194 2.225-2.239 2.224-2.239 4.449-2.239 8.898v66.743c17.911 0 29.106-2.225 38.062-8.9 4.478-6.674 8.956-15.573 8.956-31.146ZM1039 98.56c0 26.698-8.96 48.945-24.63 66.743C998.699 183.101 978.548 192 956.159 192c-24.629 0-44.779-8.899-62.691-28.922-17.911-20.022-24.628-42.27-24.628-68.967 0-26.696 8.956-51.168 24.628-68.966C909.141 7.347 929.291.673 953.92.673c24.628 0 44.779 8.899 60.45 26.696 15.67 20.023 24.63 42.27 24.63 71.192Zm-31.35 0c0-31.145-6.71-57.842-20.146-75.64-8.956-11.124-20.15-17.798-35.823-17.798-13.434 0-24.628 4.45-33.584 13.349-13.434 15.573-22.39 42.27-22.39 77.865 0 28.922 4.478 51.169 15.673 66.742 11.195 15.573 24.628 24.472 42.54 24.472 17.911 0 29.106-6.674 38.062-22.247 11.198-15.573 15.668-37.821 15.668-66.742Z"/></symbol>
</svg>