<?xml version="1.0" encoding="UTF-8"?>
<svg version="1.1" xmlns="http://www.w3.org/2000/svg" xmlns:xlink="http://www.w3.org/1999/xlink">
<defs></defs>
<symbol id="actual" fill="none" viewBox="0 0 177 100"><path stroke="currentColor" stroke-linecap="round" stroke-linejoin="round" stroke-miterlimit="10" stroke-width="1.73" d="M94.984 46.184s25.375.458 29.938-.654c1.325-.321 5.635-5.012 5.635-5.012s-.565 3.945.749 4.358c1.302.413 2.8-.367 2.8-.367s2.605 6.388-1.071 7.317c-2.512.63-8.355 2.523-11.789 3.658a10.087 10.087 0 0 0-3.987 2.5c-.933.952-2.339 2.076-4.137 2.603-2.984.872-17.804.791-17.804.791"/><path stroke="currentColor" stroke-linecap="round" stroke-linejoin="round" stroke-miterlimit="10" stroke-width="1.73" d="M95.33 58.385s5.888.16 8.412-.539c3.238-.894 8.55-11.238 13.068-11.617M137.805 66.057s.208 19.312-1.659 21.262c-1.867 1.95-10.636 1.204-11.281.562-.646-.654-.554-4.794-.554-4.794"/><path stroke="currentColor" stroke-linecap="round" stroke-linejoin="round" stroke-miterlimit="10" stroke-width="1.73" d="M94.984 69.383s19.521.08 20.673.218c4.713.585 9.576 5.459 12.665 5.78 5.277.562 8.573-.93 8.573-.93"/><path stroke="currentColor" stroke-linecap="round" stroke-linejoin="round" stroke-miterlimit="10" stroke-width="1.73" d="M61.935 36.768s9.553-13.864 11.247-15.47c.07-.069.138-.126.207-.195 2.317-2.328 3.93-1.204 4.276-.906a.201.201 0 0 0 .172.058s13.875-.333 17.931-.345c4.563-.023 18.276.345 18.276.345a.284.284 0 0 0 .173-.058c.346-.298 1.959-1.422 4.275.906.069.069.138.138.208.195 1.452 1.376 8.734 11.835 10.739 14.725.139.206.473.103.473-.15.011-1.157.23-3.107 1.579-3.612 1.866-.71 6.718.723 7.19.872.023.011.058.023.081.034.207.16 1.072 1.113-.818 4.771-.012.011-.012.034-.023.046-.415.516-1.314.837-5.439.78-.219 0-.346.252-.208.424.841 1.02 3.019 3.727 4.817 6.433 2.282 3.43 1.775 16.273.138 23.601v.012c-1.117 7.087-1.256 11.216-2.132 11.892-.864.677-5.715 3.406-13.113.929-7.398-2.477-32.335-1.353-35.043-.952"/><path stroke="currentColor" stroke-linecap="round" stroke-linejoin="round" stroke-miterlimit="10" stroke-width="1.73" d="m96.828 36.459-30.917-.23c-.035-.986 8.7-13.646 10.117-13.715.76-.046 19.429-.31 19.613-.31 2.362.069 19.452.264 20.224.31 1.417.08 9.898 12.052 9.898 13.05-.023 1.56-28.935.895-28.935.895ZM96.909 46.183s-25.375.46-29.938-.653c-1.037-.252-3.918-3.2-5.117-4.45a.262.262 0 0 0-.449.195c.092 1.17.115 3.303-.818 3.601-.98.31-2.074-.046-2.547-.252a.26.26 0 0 0-.346.149c-.437 1.204-2.062 6.238 1.176 7.053 2.535.642 8.423 2.545 11.846 3.68a9.778 9.778 0 0 1 3.895 2.455c.933.963 2.35 2.099 4.16 2.626 2.984.872 17.803.791 17.803.791"/><path stroke="currentColor" stroke-linecap="round" stroke-linejoin="round" stroke-miterlimit="10" stroke-width="1.73" d="M96.563 58.385s-5.889.16-8.412-.539c-3.238-.894-8.55-11.238-13.068-11.617M96.909 69.383s-19.52.08-20.673.218c-4.713.585-9.576 5.459-12.665 5.78-5.277.562-8.573-.93-8.573-.93"/><path fill="#fff" d="M94.65 62.48c0 15.79-12.872 28.6-28.74 28.6-15.867 0-28.739-12.81-28.739-28.6 0-15.792 12.872-28.602 28.74-28.602 15.867 0 28.74 12.798 28.74 28.601Z"/><path stroke="currentColor" stroke-linecap="round" stroke-linejoin="round" stroke-miterlimit="10" stroke-width="3.46" d="M65.91 91.08c15.873 0 28.74-12.805 28.74-28.6 0-15.797-12.867-28.602-28.74-28.602-15.872 0-28.739 12.805-28.739 28.601S50.038 91.08 65.911 91.08Z"/><path fill="#fff" d="M53.592 61.814c3.503 3.452 9.76 13.016 10.002 12.982.3-.046 3.988-14.714 11.132-22.489"/><path stroke="currentColor" stroke-linecap="round" stroke-linejoin="round" stroke-miterlimit="10" stroke-width="3.46" d="M53.592 61.814c3.503 3.452 9.76 13.016 10.002 12.982.3-.046 3.988-14.714 11.132-22.489"/></symbol>
<symbol id="benefit" fill="none" viewBox="0 0 177 100"><path stroke="currentColor" stroke-linecap="round" stroke-linejoin="round" stroke-miterlimit="10" stroke-width="2.307" d="M130.478 90.447c5.123 0 9.276-4.333 9.276-9.679 0-5.345-4.153-9.679-9.276-9.679-5.124 0-9.277 4.334-9.277 9.68 0 5.345 4.153 9.678 9.277 9.678ZM130.478 26.766c-2.34-1.594-6.35.16-8.954 3.934-2.593 3.772-2.8 8.119-.461 9.724"/><path stroke="currentColor" stroke-linecap="round" stroke-linejoin="round" stroke-miterlimit="10" stroke-width="2.307" d="m116.189 82.683-58.931.367s.265-17.27-12.78-17.362c-13.044-.092-15.672 10.872-14.012 17.546.173 2.099-11.823-1.101-12.169-4.473.07-.263-2.362-14.07 5.6-19.46 0 0 6.776-4.6 28.959-5.39 0 0 22.298-14.072 26.389-14.186 4.206-1.766 54.206-4.817 66.282-.837 4.287.78-.668 1.938-1.198 2.052 0 0 10.221 9.863 11.155 12.305.53 2.076.23 10.299.172 10.654.058 1.823 2.397 6.09 2.397 7.856 0 0 .703 10.355-14.715 9.197-.173-3.223-.38-10.172-7.871-13.613-4.701-2.167-10.221-1.307-13.943 2.386-2.431 2.397-4.517 6.33-4.967 12.752"/><path stroke="currentColor" stroke-linecap="round" stroke-linejoin="round" stroke-miterlimit="10" stroke-width="2.307" d="M135.721 46.239s-8.493 6.399-11.731 6.766c-3.238.366-48.905 4.105-59.737 2.04M43.36 90.447c5.124 0 9.277-4.333 9.277-9.679 0-5.345-4.153-9.679-9.276-9.679-5.124 0-9.277 4.334-9.277 9.68 0 5.345 4.153 9.678 9.276 9.678ZM31.342 60.218c.173.275-3.596 5.573-11.558 5.757M147.36 49.037c0 .607-5.37 4.747-5.37 5.481s3.445 2.317 3.848 2.5c.404.184 7.767.126 9.519-1.1M128.668 30.803l9.911-.264-.081-.08 12.353-11.032L142.347 10l-12.353 11.02-1.326 9.783Z"/><path stroke="currentColor" stroke-linecap="round" stroke-linejoin="round" stroke-miterlimit="10" stroke-width="2.307" d="M132.829 26.181c3.134 2.363 2.558 8.36-1.279 13.395-3.838 5.034-9.484 7.202-12.619 4.84"/></symbol>
<symbol id="choice" fill="none" viewBox="0 0 177 100"><path fill="#fff" d="M91.65 7v11.284h13.321"/><path stroke="currentColor" stroke-linecap="round" stroke-linejoin="round" stroke-miterlimit="10" stroke-width="2.307" d="M91.65 7v11.284h13.321M67.83 31.209h29.513M67.83 40.2h29.513M67.83 49.179h29.513M67.83 58.766h29.513M67.83 67.746h29.513M67.83 76.736h29.513M62 31.209h.08M62 40.2h.08M62 49.179h.08M62 58.766h.08M62 67.746h.08M62 76.736h.08"/><path stroke="currentColor" stroke-linecap="round" stroke-linejoin="round" stroke-miterlimit="10" stroke-width="2.307" d="M105.651 86.576H52.793V7H91.65l6.66 5.642 6.661 5.642.68 68.292Z"/><path fill="#fff" d="M136.925 71.083c0 12.247-9.979 22.178-22.286 22.178-12.307 0-22.286-9.93-22.286-22.178 0-12.248 9.979-22.18 22.286-22.18 12.307 0 22.286 9.932 22.286 22.18Z"/><path stroke="currentColor" stroke-linecap="round" stroke-linejoin="round" stroke-miterlimit="10" stroke-width="3.46" d="M114.627 93.262c12.308 0 22.286-9.93 22.286-22.18 0-12.248-9.978-22.178-22.286-22.178-12.308 0-22.286 9.93-22.286 22.179 0 12.249 9.978 22.179 22.286 22.179Z"/><path fill="#fff" d="M107.771 71.186c2.155 2.133 6.015 8.027 6.165 8.004.184-.022 2.454-9.07 6.856-13.864"/><path stroke="currentColor" stroke-linecap="round" stroke-linejoin="round" stroke-miterlimit="10" stroke-width="3.46" d="M107.771 71.186c2.155 2.133 6.015 8.027 6.165 8.004.184-.022 2.454-9.07 6.856-13.864"/></symbol>
<symbol id="service" fill="none" viewBox="0 0 177 100"><path stroke="currentColor" stroke-linejoin="round" stroke-miterlimit="10" stroke-width="2.307" d="M72.977 52.764c0-10.688-9.265-19.358-20.696-19.358-11.431 0-20.696 8.67-20.696 19.358 0 3.245.853 6.296 2.362 8.98.023.056.046.102.08.16l.047.08c.265.447.541.883.841 1.307l7.79 12.168 8.735 13.647c.38.584 1.29.584 1.66 0l8.734-13.647 7.536-11.766c2.282-3.108 3.607-6.87 3.607-10.93Z"/><path stroke="currentColor" stroke-linejoin="round" stroke-miterlimit="10" stroke-width="2.307" d="M52.292 67.225c7.644 0 13.84-6.167 13.84-13.773 0-7.607-6.196-13.773-13.84-13.773-7.643 0-13.84 6.166-13.84 13.773 0 7.606 6.197 13.773 13.84 13.773ZM146.323 27.844c0-6.835-5.923-12.374-13.217-12.374-7.294 0-13.217 5.54-13.217 12.374 0 2.076.541 4.025 1.509 5.734.012.034.023.069.046.103l.035.046c.161.287.346.562.542.837l4.966 7.775 5.578 8.716a.637.637 0 0 0 1.06 0l5.577-8.716 4.817-7.523c1.452-1.983 2.304-4.38 2.304-6.972Z"/><path stroke="currentColor" stroke-linejoin="round" stroke-miterlimit="10" stroke-width="2.307" d="M133.106 37.087c4.888 0 8.85-3.943 8.85-8.807 0-4.864-3.962-8.808-8.85-8.808-4.887 0-8.85 3.944-8.85 8.808s3.963 8.807 8.85 8.807Z"/><path stroke="currentColor" stroke-linejoin="round" stroke-miterlimit="10" stroke-width="1.73" d="M92.002 17.867c0-4.346-3.768-7.867-8.412-7.867-4.644 0-8.412 3.52-8.412 7.867 0 1.319.346 2.557.957 3.647.011.023.022.046.034.057l.023.034c.104.184.219.356.346.54l3.169 4.942 3.549 5.54c.15.24.519.24.68 0l3.55-5.54 3.064-4.782a7.551 7.551 0 0 0 1.452-4.438Z"/><path stroke="currentColor" stroke-linejoin="round" stroke-miterlimit="10" stroke-width="1.846" d="M83.59 23.245c2.832 0 5.128-2.285 5.128-5.103 0-2.818-2.296-5.103-5.128-5.103-2.832 0-5.128 2.285-5.128 5.103 0 2.819 2.296 5.103 5.128 5.103Z"/><path stroke="currentColor" stroke-linecap="round" stroke-linejoin="round" stroke-miterlimit="10" stroke-width="2.307" d="M79.81 35.47c-20.892 4.404 82.566 17.558 38.546 19.495 0 0-80.237 7.271 14.07 21.193 15.868 2.34-20.154 7.695-75.132 13.463"/></symbol>
</svg>