<svg width="177" height="100" viewBox="0 0 177 100" fill="none" xmlns="http://www.w3.org/2000/svg">
<path d="M94.9843 46.1835C94.9843 46.1835 120.359 46.6422 124.922 45.5298C126.247 45.2087 130.557 40.5183 130.557 40.5183C130.557 40.5183 129.992 44.4633 131.306 44.8761C132.608 45.289 134.106 44.5092 134.106 44.5092C134.106 44.5092 136.711 50.8968 133.035 51.8257C130.523 52.4564 124.68 54.3486 121.246 55.4839C119.737 55.9885 118.377 56.8486 117.259 57.9839C116.326 58.9358 114.92 60.0596 113.122 60.5871C110.138 61.4587 95.3184 61.3784 95.3184 61.3784" stroke="currentColor" stroke-width="1.73019" stroke-miterlimit="10" stroke-linecap="round" stroke-linejoin="round"/>
<path d="M95.33 58.3853C95.33 58.3853 101.218 58.5459 103.742 57.8463C106.98 56.9518 112.292 46.6078 116.81 46.2293" stroke="currentColor" stroke-width="1.73019" stroke-miterlimit="10" stroke-linecap="round" stroke-linejoin="round"/>
<path d="M137.805 66.0572C137.805 66.0572 138.013 85.3691 136.146 87.3187C134.279 89.2682 125.51 88.5228 124.865 87.8806C124.219 87.2269 124.311 83.087 124.311 83.087" stroke="currentColor" stroke-width="1.73019" stroke-miterlimit="10" stroke-linecap="round" stroke-linejoin="round"/>
<path d="M94.9843 69.3829C94.9843 69.3829 114.505 69.4632 115.657 69.6008C120.37 70.1857 125.233 75.0596 128.322 75.3807C133.599 75.9426 136.895 74.4518 136.895 74.4518" stroke="currentColor" stroke-width="1.73019" stroke-miterlimit="10" stroke-linecap="round" stroke-linejoin="round"/>
<path d="M61.9352 36.7683C61.9352 36.7683 71.4881 22.9036 73.1821 21.2981C73.2512 21.2293 73.3203 21.1719 73.3895 21.1031C75.7057 18.7752 77.319 19.899 77.6647 20.1972C77.7108 20.243 77.7799 20.266 77.8375 20.2545C77.8375 20.2545 91.7117 19.9219 95.768 19.9105C100.331 19.8875 114.044 20.2545 114.044 20.2545C114.113 20.2545 114.171 20.2316 114.217 20.1972C114.563 19.899 116.176 18.7752 118.492 21.1031C118.561 21.1719 118.63 21.2408 118.7 21.2981C120.152 22.6742 127.434 33.133 129.439 36.0229C129.578 36.2293 129.912 36.1261 129.912 35.8738C129.923 34.7155 130.142 32.766 131.491 32.2614C133.357 31.5504 138.209 32.9839 138.681 33.133C138.704 33.1444 138.739 33.1559 138.762 33.1674C138.969 33.3279 139.834 34.2797 137.944 37.938C137.932 37.9495 137.932 37.9724 137.921 37.9839C137.506 38.4999 136.607 38.821 132.482 38.7637C132.263 38.7637 132.136 39.016 132.274 39.188C133.115 40.2086 135.293 42.9151 137.091 45.6215C139.373 49.0504 138.866 61.8944 137.229 69.2224V69.2339C136.112 76.321 135.973 80.4495 135.097 81.1261C134.233 81.8027 129.382 84.532 121.984 82.055C114.586 79.5779 89.649 80.7018 86.941 81.1031" stroke="currentColor" stroke-width="1.73019" stroke-miterlimit="10" stroke-linecap="round" stroke-linejoin="round"/>
<path d="M96.828 36.4587L65.9106 36.2293C65.8761 35.2431 74.6108 22.5825 76.0282 22.5137C76.7887 22.4678 95.4567 22.2041 95.6411 22.2041C98.0034 22.2729 115.093 22.4678 115.865 22.5137C117.282 22.594 125.763 34.5665 125.763 35.5642C125.74 37.1238 96.828 36.4587 96.828 36.4587Z" stroke="currentColor" stroke-width="1.73019" stroke-miterlimit="10" stroke-linecap="round" stroke-linejoin="round"/>
<path d="M96.9087 46.1834C96.9087 46.1834 71.5341 46.6422 66.9708 45.5298C65.9337 45.2775 63.0529 42.3302 61.8544 41.0802C61.6816 40.9082 61.3935 41.0344 61.405 41.2752C61.4972 42.4449 61.5202 44.5779 60.5868 44.8761C59.6074 45.1857 58.5126 44.8302 58.0402 44.6238C57.9019 44.5665 57.7406 44.6353 57.6945 44.7729C57.2566 45.977 55.6318 51.0114 58.8699 51.8256C61.405 52.4678 67.2935 54.3715 70.716 55.5068C72.191 56 73.5277 56.8486 74.6109 57.961C75.5443 58.9243 76.9616 60.0596 78.7708 60.5871C81.7554 61.4587 96.5745 61.3784 96.5745 61.3784" stroke="currentColor" stroke-width="1.73019" stroke-miterlimit="10" stroke-linecap="round" stroke-linejoin="round"/>
<path d="M96.5629 58.3853C96.5629 58.3853 90.6745 58.5459 88.1508 57.8463C84.9127 56.9518 79.6004 46.6078 75.0833 46.2293" stroke="currentColor" stroke-width="1.73019" stroke-miterlimit="10" stroke-linecap="round" stroke-linejoin="round"/>
<path d="M96.9088 69.3829C96.9088 69.3829 77.3881 69.4632 76.2357 69.6008C71.5227 70.1857 66.6598 75.0596 63.5715 75.3807C58.2938 75.9426 54.998 74.4518 54.998 74.4518" stroke="currentColor" stroke-width="1.73019" stroke-miterlimit="10" stroke-linecap="round" stroke-linejoin="round"/>
<path d="M94.6501 62.4793C94.6501 78.2706 81.7784 91.0802 65.9106 91.0802C50.0428 91.0802 37.1711 78.2706 37.1711 62.4793C37.1711 46.688 50.0428 33.8784 65.9106 33.8784C81.7784 33.8784 94.6501 46.6765 94.6501 62.4793Z" fill="white"/>
<path d="M65.9106 91.0802C81.783 91.0802 94.6501 78.2751 94.6501 62.4793C94.6501 46.6834 81.783 33.8784 65.9106 33.8784C50.0382 33.8784 37.1711 46.6834 37.1711 62.4793C37.1711 78.2751 50.0382 91.0802 65.9106 91.0802Z" stroke="currentColor" stroke-width="3.46038" stroke-miterlimit="10" stroke-linecap="round" stroke-linejoin="round"/>
<path d="M53.592 61.8142C57.0952 65.266 63.3524 74.8302 63.5944 74.7958C63.894 74.7499 67.5815 60.0825 74.726 52.3073" fill="white"/>
<path d="M53.592 61.8142C57.0952 65.266 63.3524 74.8302 63.5944 74.7958C63.894 74.7499 67.5815 60.0825 74.726 52.3073" stroke="currentColor" stroke-width="3.46038" stroke-miterlimit="10" stroke-linecap="round" stroke-linejoin="round"/>
</svg>
