<svg width="177" height="100" viewBox="0 0 177 100" fill="none" xmlns="http://www.w3.org/2000/svg">
<path d="M130.478 90.4471C135.601 90.4471 139.754 86.1138 139.754 80.7683C139.754 75.4227 135.601 71.0894 130.478 71.0894C125.354 71.0894 121.201 75.4227 121.201 80.7683C121.201 86.1138 125.354 90.4471 130.478 90.4471Z" stroke="currentColor" stroke-width="2.30692" stroke-miterlimit="10" stroke-linecap="round" stroke-linejoin="round"/>
<path d="M130.478 26.766C128.138 25.172 124.128 26.9266 121.524 30.6995C118.931 34.4725 118.724 38.8188 121.063 40.4243" stroke="currentColor" stroke-width="2.30692" stroke-miterlimit="10" stroke-linecap="round" stroke-linejoin="round"/>
<path d="M116.189 82.6835L57.2578 83.0504C57.2578 83.0504 57.5228 65.7798 44.4783 65.688C31.4338 65.5963 28.8064 76.5596 30.4658 83.2339C30.6387 85.3325 18.6428 82.133 18.297 78.7614C18.3662 78.4977 15.9347 64.6903 23.8974 59.3004C23.8974 59.3004 30.6732 54.7018 52.8558 53.9105C52.8558 53.9105 75.1537 39.8394 79.2445 39.7247C83.4506 37.9587 133.451 34.9082 145.527 38.8876C149.814 39.6674 144.859 40.8257 144.329 40.9403C144.329 40.9403 154.55 50.8027 155.484 53.2454C156.014 55.3211 155.714 63.5435 155.656 63.8991C155.714 65.7224 158.053 69.9885 158.053 71.7546C158.053 71.7546 158.756 82.1101 143.338 80.9518C143.165 77.7293 142.958 70.7798 135.467 67.3394C130.766 65.172 125.246 66.0321 121.524 69.7247C119.093 72.1215 117.007 76.055 116.557 82.477" stroke="currentColor" stroke-width="2.30692" stroke-miterlimit="10" stroke-linecap="round" stroke-linejoin="round"/>
<path d="M135.721 46.2385C135.721 46.2385 127.228 52.6375 123.99 53.0045C120.752 53.3715 75.0847 57.11 64.2527 55.0458" stroke="currentColor" stroke-width="2.30692" stroke-miterlimit="10" stroke-linecap="round" stroke-linejoin="round"/>
<path d="M43.3605 90.4471C48.4837 90.4471 52.6368 86.1138 52.6368 80.7683C52.6368 75.4227 48.4837 71.0894 43.3605 71.0894C38.2373 71.0894 34.0841 75.4227 34.0841 80.7683C34.0841 86.1138 38.2373 90.4471 43.3605 90.4471Z" stroke="currentColor" stroke-width="2.30692" stroke-miterlimit="10" stroke-linecap="round" stroke-linejoin="round"/>
<path d="M31.3417 60.2178C31.5146 60.4931 27.7464 65.7912 19.7837 65.9747" stroke="currentColor" stroke-width="2.30692" stroke-miterlimit="10" stroke-linecap="round" stroke-linejoin="round"/>
<path d="M147.36 49.0366C147.36 49.6444 141.99 53.7843 141.99 54.5182C141.99 55.2522 145.435 56.8348 145.838 57.0182C146.242 57.2017 153.605 57.1444 155.357 55.9173" stroke="currentColor" stroke-width="2.30692" stroke-miterlimit="10" stroke-linecap="round" stroke-linejoin="round"/>
<path d="M128.668 30.8027L138.579 30.539L138.498 30.4587L150.851 19.4266L142.347 9.99997L129.994 21.0206L128.668 30.8027Z" stroke="currentColor" stroke-width="2.30692" stroke-miterlimit="10" stroke-linecap="round" stroke-linejoin="round"/>
<path d="M132.829 26.1812C135.963 28.5435 135.387 34.5412 131.55 39.5756C127.712 44.6101 122.066 46.7775 118.931 44.4151" stroke="currentColor" stroke-width="2.30692" stroke-miterlimit="10" stroke-linecap="round" stroke-linejoin="round"/>
</svg>
