<svg width="177" height="100" viewBox="0 0 177 100" fill="none" xmlns="http://www.w3.org/2000/svg">
<path d="M91.6503 7V18.2844H104.971" fill="white"/>
<path d="M91.6503 7V18.2844H104.971" stroke="currentColor" stroke-width="2.30692" stroke-miterlimit="10" stroke-linecap="round" stroke-linejoin="round"/>
<path d="M67.8309 31.2087H97.3425" stroke="currentColor" stroke-width="2.30692" stroke-miterlimit="10" stroke-linecap="round" stroke-linejoin="round"/>
<path d="M67.8309 40.1995H97.3425" stroke="currentColor" stroke-width="2.30692" stroke-miterlimit="10" stroke-linecap="round" stroke-linejoin="round"/>
<path d="M67.8309 49.179H97.3425" stroke="currentColor" stroke-width="2.30692" stroke-miterlimit="10" stroke-linecap="round" stroke-linejoin="round"/>
<path d="M67.8309 58.7662H97.3425" stroke="currentColor" stroke-width="2.30692" stroke-miterlimit="10" stroke-linecap="round" stroke-linejoin="round"/>
<path d="M67.8309 67.7455H97.3425" stroke="currentColor" stroke-width="2.30692" stroke-miterlimit="10" stroke-linecap="round" stroke-linejoin="round"/>
<path d="M67.8309 76.7362H97.3425" stroke="currentColor" stroke-width="2.30692" stroke-miterlimit="10" stroke-linecap="round" stroke-linejoin="round"/>
<path d="M61.9999 31.2087H62.0803" stroke="currentColor" stroke-width="2.30692" stroke-miterlimit="10" stroke-linecap="round" stroke-linejoin="round"/>
<path d="M61.9999 40.1995H62.0803" stroke="currentColor" stroke-width="2.30692" stroke-miterlimit="10" stroke-linecap="round" stroke-linejoin="round"/>
<path d="M61.9999 49.179H62.0803" stroke="currentColor" stroke-width="2.30692" stroke-miterlimit="10" stroke-linecap="round" stroke-linejoin="round"/>
<path d="M61.9999 58.7662H62.0803" stroke="currentColor" stroke-width="2.30692" stroke-miterlimit="10" stroke-linecap="round" stroke-linejoin="round"/>
<path d="M61.9999 67.7455H62.0803" stroke="currentColor" stroke-width="2.30692" stroke-miterlimit="10" stroke-linecap="round" stroke-linejoin="round"/>
<path d="M61.9999 76.7362H62.0803" stroke="currentColor" stroke-width="2.30692" stroke-miterlimit="10" stroke-linecap="round" stroke-linejoin="round"/>
<path d="M105.651 86.5757H52.7928V7H91.6499L98.3104 12.6422L104.971 18.2844L105.651 86.5757Z" stroke="currentColor" stroke-width="2.30692" stroke-miterlimit="10" stroke-linecap="round" stroke-linejoin="round"/>
<path d="M136.925 71.0826C136.925 83.3303 126.946 93.2615 114.639 93.2615C102.332 93.2615 92.3525 83.3303 92.3525 71.0826C92.3525 58.8349 102.332 48.9037 114.639 48.9037C126.946 48.9037 136.925 58.8349 136.925 71.0826Z" fill="white"/>
<path d="M114.627 93.2617C126.935 93.2617 136.913 83.3319 136.913 71.0828C136.913 58.8338 126.935 48.9039 114.627 48.9039C102.319 48.9039 92.3407 58.8338 92.3407 71.0828C92.3407 83.3319 102.319 93.2617 114.627 93.2617Z" stroke="currentColor" stroke-width="3.46038" stroke-miterlimit="10" stroke-linecap="round" stroke-linejoin="round"/>
<path d="M107.771 71.1858C109.926 73.3189 113.786 79.2134 113.936 79.1904C114.12 79.1675 116.39 70.1193 120.792 65.3257" fill="white"/>
<path d="M107.771 71.1858C109.926 73.3189 113.786 79.2134 113.936 79.1904C114.12 79.1675 116.39 70.1193 120.792 65.3257" stroke="currentColor" stroke-width="3.46038" stroke-miterlimit="10" stroke-linecap="round" stroke-linejoin="round"/>
</svg>
