<svg width="177" height="100" viewBox="0 0 177 100" fill="none" xmlns="http://www.w3.org/2000/svg">
<path d="M72.977 52.7638C72.977 42.0757 63.7122 33.406 52.2809 33.406C40.8497 33.406 31.5848 42.0757 31.5848 52.7638C31.5848 56.0092 32.4376 59.0596 33.9471 61.7431C33.9702 61.8005 33.9932 61.8463 34.0278 61.9037L34.0739 61.984C34.3389 62.4312 34.6155 62.867 34.9151 63.2913L42.705 75.4587L51.4397 89.1055C51.82 89.6904 52.7303 89.6904 53.0991 89.1055L61.8339 75.4587L69.3702 63.6927C71.6518 60.5849 72.977 56.8234 72.977 52.7638Z" stroke="currentColor" stroke-width="2.30692" stroke-miterlimit="10" stroke-linejoin="round"/>
<path d="M52.2923 67.2247C59.9357 67.2247 66.1319 61.0583 66.1319 53.4517C66.1319 45.8452 59.9357 39.6788 52.2923 39.6788C44.6489 39.6788 38.4526 45.8452 38.4526 53.4517C38.4526 61.0583 44.6489 67.2247 52.2923 67.2247Z" stroke="currentColor" stroke-width="2.30692" stroke-miterlimit="10" stroke-linejoin="round"/>
<path d="M146.323 27.844C146.323 21.0091 140.4 15.4701 133.106 15.4701C125.812 15.4701 119.889 21.0091 119.889 27.844C119.889 29.9197 120.43 31.8692 121.398 33.5779C121.41 33.6123 121.421 33.6467 121.444 33.6811L121.479 33.727C121.64 34.0137 121.825 34.2889 122.021 34.5642L126.987 42.3394L132.565 51.055C132.807 51.4334 133.383 51.4334 133.625 51.055L139.202 42.3394L144.019 34.8165C145.471 32.8325 146.323 30.4357 146.323 27.844Z" stroke="currentColor" stroke-width="2.30692" stroke-miterlimit="10" stroke-linejoin="round"/>
<path d="M133.106 37.0871C137.994 37.0871 141.956 33.1439 141.956 28.2797C141.956 23.4156 137.994 19.4724 133.106 19.4724C128.219 19.4724 124.256 23.4156 124.256 28.2797C124.256 33.1439 128.219 37.0871 133.106 37.0871Z" stroke="currentColor" stroke-width="2.30692" stroke-miterlimit="10" stroke-linejoin="round"/>
<path d="M92.0023 17.8669C92.0023 13.5206 88.2341 9.99994 83.5901 9.99994C78.9462 9.99994 75.178 13.5206 75.178 17.8669C75.178 19.1857 75.5237 20.4242 76.1345 21.5137C76.146 21.5366 76.1575 21.5596 76.1691 21.571L76.1921 21.6054C76.2958 21.7889 76.411 21.9609 76.5378 22.1444L79.7067 27.0871L83.256 32.6261C83.4058 32.8669 83.7745 32.8669 83.9359 32.6261L87.4851 27.0871L90.5503 22.305C91.4607 21.0435 92.0023 19.5183 92.0023 17.8669Z" stroke="currentColor" stroke-width="1.73019" stroke-miterlimit="10" stroke-linejoin="round"/>
<path d="M83.5902 23.2453C86.4223 23.2453 88.7181 20.9605 88.7181 18.1421C88.7181 15.3237 86.4223 13.0389 83.5902 13.0389C80.7581 13.0389 78.4623 15.3237 78.4623 18.1421C78.4623 20.9605 80.7581 23.2453 83.5902 23.2453Z" stroke="currentColor" stroke-width="1.84554" stroke-miterlimit="10" stroke-linejoin="round"/>
<path d="M79.8104 35.4701C58.9184 39.8738 162.376 53.0275 118.356 54.9655C118.356 54.9655 38.1186 62.2362 132.426 76.1582C148.294 78.4977 112.272 83.8532 57.2936 89.6215" stroke="currentColor" stroke-width="2.30692" stroke-miterlimit="10" stroke-linecap="round" stroke-linejoin="round"/>
</svg>
